<svg id="Capa_1" data-name="Capa 1" xmlns="http://www.w3.org/2000/svg" viewBox="0 0 390.4 173.07"><defs><style>.cls-1{opacity:0.58;}.cls-2,.cls-3{stroke:#000;stroke-miterlimit:10;}.cls-3{fill:#fff;}</style></defs><g class="cls-1"><path class="cls-2" d="M93.73,259.46l56.56-121.84h24.34L119.46,258.08H202.1V280H93.73Zm72.67-52.65h23.07v99.06H166.4Z" transform="translate(-78.23 -134.92)"/><path class="cls-2" d="M243.31,294.87q-12.23-12.62-12.23-35.17V183.21q0-22.68,12.29-35.24t35.82-12.55q23.64,0,35.87,12.5t12.23,35.29V259.7q0,22.68-12.28,35.23t-35.82,12.56Q255.54,307.49,243.31,294.87Zm54.37-16.37q6-6.54,6-18.8V183.21q0-12.27-5.92-18.81t-18.54-6.53q-12.63,0-18.55,6.53t-5.91,18.81V259.7q0,12.26,6,18.8T279.19,285Q291.72,285,297.68,278.5Z" transform="translate(-78.23 -134.92)"/><path class="cls-2" d="M359.75,259.46l56.56-121.84h24.35L385.48,258.08h82.65V280H359.75Zm72.68-52.65h23.06v99.06H432.43Z" transform="translate(-78.23 -134.92)"/></g><path class="cls-2" d="M78.73,259.46l56.56-121.84h24.34L104.46,258.08H187.1V280H78.73Zm72.67-52.65h23.07v99.06H151.4Z" transform="translate(-78.23 -134.92)"/><path class="cls-2" d="M228.31,294.87q-12.23-12.62-12.23-35.17V183.21q0-22.68,12.29-35.24t35.82-12.55q23.64,0,35.87,12.5t12.23,35.29V259.7q0,22.68-12.28,35.23t-35.82,12.56Q240.53,307.49,228.31,294.87Zm54.37-16.37q6-6.54,6-18.8V183.21q0-12.27-5.92-18.81t-18.54-6.53q-12.63,0-18.55,6.53t-5.91,18.81V259.7q0,12.26,6,18.8T264.19,285Q276.72,285,282.68,278.5Z" transform="translate(-78.23 -134.92)"/><path class="cls-2" d="M344.75,259.46l56.56-121.84h24.35L370.48,258.08h82.65V280H344.75Zm72.68-52.65h23.06v99.06H417.43Z" transform="translate(-78.23 -134.92)"/><rect class="cls-3" x="146.27" y="32.58" width="6" height="41" rx="2.34"/><rect class="cls-3" x="224.27" y="89.58" width="6" height="26" rx="2.34"/><rect class="cls-3" x="224.27" y="116.58" width="6" height="10" rx="2.34"/><rect class="cls-3" x="354.27" y="73.58" width="6" height="41" rx="2.34"/><rect class="cls-3" x="89.27" y="73.58" width="6" height="41" rx="2.34"/></svg>